<?xml version="1.0" encoding="iso-8859-1"?>
<!-- Generator: Adobe Illustrator 19.0.0, SVG Export Plug-In . SVG Version: 6.00 Build 0)  -->
<svg xmlns="http://www.w3.org/2000/svg" xmlns:xlink="http://www.w3.org/1999/xlink" version="1.1" id="Capa_1" x="0px" y="0px" viewBox="0 0 512.005 512.005" style="enable-background:new 0 0 512.005 512.005;" xml:space="preserve" width="512px" height="512px">
<g>
	<g>
		<path d="M468.38,261.414c-0.341-3.873-3.584-6.844-7.472-6.844c-7.407,0-13.939-3.819-20.556-12.019    c-2.602-3.225-7.324-3.728-10.547-1.127c-3.224,2.602-3.728,7.323-1.127,10.547c7.25,8.983,15.339,14.56,24.132,16.655    c-0.802,3.537-2.584,8.181-6.513,12.536c-8.095,8.975-22.929,13.881-42.9,14.189c-2.144,0.033-4.171,0.982-5.569,2.607    c-1.398,1.626-2.034,3.771-1.747,5.896c0.083,0.614,0.122,1.093,0.122,1.506c0,6.11-4.972,11.082-11.082,11.082    c-2.027,0-4.025-0.57-5.779-1.648c-2.492-1.533-5.651-1.476-8.087,0.147c-2.437,1.623-3.705,4.515-3.251,7.406    c0.954,6.062-0.132,12.221-2.948,17.524c-1.424-27.709-24.415-49.814-52.472-49.814h-2.929    c19.221-16.486,33.339-41.559,38.739-70.737c4.478,2.533,9.587,3.93,14.894,3.93c16.692,0,30.272-13.58,30.272-30.272    s-13.58-30.272-30.272-30.272c-4.374,0-8.617,0.943-12.481,2.692v-6.296l1.609,0.53c5.687,1.886,11.979,0.912,16.834-2.595    c4.862-3.511,7.765-9.188,7.765-15.184c0-0.839-0.141-1.673-0.417-2.465l-10.209-29.337c-1.36-3.912-5.636-5.981-9.548-4.618    c-3.912,1.361-5.979,5.636-4.618,9.548l9.679,27.814c-0.272,1.087-0.976,1.751-1.434,2.081c-0.574,0.415-1.771,1.033-3.346,0.513    l-60.954-20.087c-2.288-0.754-4.795-0.363-6.743,1.046c-1.95,1.41-3.104,3.671-3.104,6.077v13.38c0,1.736-1.038,2.688-1.657,3.102    c-0.618,0.412-1.894,1.003-3.489,0.339l-57.12-23.746c-2.315-0.963-4.958-0.704-7.042,0.688c-2.085,1.391-3.337,3.731-3.337,6.238    v8.621c0,2.246-1.607,3.154-2.299,3.44c-0.692,0.286-2.469,0.782-4.059-0.808l-14.857-14.857    c-2.146-2.145-5.371-2.788-8.174-1.625c-2.803,1.16-4.63,3.896-4.63,6.929v4.095c0,2.246-1.607,3.154-2.299,3.44    c-0.692,0.286-2.469,0.781-4.059-0.808c-6.479-6.478-11.207-14.565-13.676-23.388c-1.116-3.989-5.26-6.32-9.243-5.202    c-3.989,1.116-6.318,5.255-5.202,9.243c2.968,10.61,8.49,20.388,16.02,28.411v15.472c-3.858-1.745-8.09-2.684-12.481-2.684    c-16.692,0-30.272,13.58-30.272,30.272c0,16.692,13.58,30.272,30.272,30.272c5.327,0,10.427-1.366,14.899-3.9    c5.404,29.166,19.52,54.228,38.734,70.708h-2.929c-28.058,0-51.048,22.105-52.472,49.814c-2.816-5.303-3.901-11.462-2.948-17.524    c0.455-2.892-0.814-5.783-3.251-7.406c-2.435-1.623-5.594-1.682-8.087-0.147c-1.754,1.078-3.752,1.648-5.779,1.648    c-6.11,0-11.082-4.972-11.082-11.082c0-0.413,0.039-0.892,0.122-1.506c0.287-2.125-0.349-4.271-1.747-5.896    c-1.398-1.625-3.426-2.574-5.569-2.607c-20.088-0.311-34.455-5.011-42.702-13.972c-4.076-4.43-5.905-9.152-6.718-12.739    c12.898-3.047,24.146-13.61,34.193-32.044c9.972-18.294,18.163-42.678,26.836-68.493c19.187-57.109,40.932-121.838,87.207-132.959    c18.511-4.448,33.379-1.14,43,9.569c1.422,1.584,3.45,2.488,5.579,2.488c2.129,0,4.157-0.904,5.579-2.488    c9.621-10.709,24.487-14.019,43.001-9.569c46.274,11.12,68.021,75.85,87.207,132.959c6.216,18.502,12.087,35.979,18.581,51.216    c1.623,3.811,6.029,5.585,9.84,3.959c3.811-1.624,5.583-6.029,3.959-9.84c-6.263-14.694-12.042-31.898-18.161-50.112    c-6.768-20.146-13.837-41.181-22.24-60.782c25.709-46.256,7.968-95.539,7.188-97.644c-1.069-2.891-3.799-4.832-6.88-4.895    c-1.569-0.03-38.077-0.489-70.759,22.016c-1.711-0.544-3.453-1.034-5.23-1.461c-15.104-3.63-35.677-4.684-52.085,8.78    c-16.408-13.464-36.98-12.411-52.085-8.78c-1.772,0.426-3.509,0.914-5.215,1.456C166.024-0.497,129.52-0.029,127.928,0.007    c-3.082,0.062-5.812,2.005-6.881,4.896c-0.167,0.45-4.101,11.217-5.828,27.204c-0.444,4.118,2.533,7.817,6.651,8.263    c0.274,0.029,0.546,0.044,0.814,0.044c3.781-0.001,7.032-2.852,7.448-6.695c0.852-7.89,2.314-14.353,3.435-18.51    c9.257,0.653,29.184,3.339,48.752,14.271c-19.415,11.745-33.995,31.812-45.884,55.385c-2.418-6.056-4.238-12.428-5.404-19.071    c-0.717-4.08-4.605-6.804-8.684-6.09c-4.08,0.716-6.807,4.604-6.09,8.684c2.145,12.215,6.192,23.676,11.992,34.128    c-8.408,19.609-15.481,40.655-22.252,60.812c-15.764,46.923-30.653,91.243-54.9,91.243c-3.888,0-7.131,2.971-7.472,6.844    c-0.058,0.657-1.272,16.252,10.942,29.796c10.007,11.095,25.682,17.421,46.656,18.848c2.219,12.147,12.88,21.387,25.659,21.387    c0.682,0,1.361-0.027,2.037-0.08c0.941,8.571,4.448,16.752,10.122,23.364c-13.724,12.038-25.459,26.033-34.951,41.734    c-2.144,3.545-1.007,8.155,2.538,10.298c1.213,0.734,2.551,1.083,3.873,1.083c2.538,0,5.016-1.29,6.425-3.621    c8.229-13.612,18.3-25.825,30.013-36.443c1.307,27.818,24.344,50.048,52.48,50.048h113.164c28.134,0,51.169-22.226,52.479-50.04    c1.97,1.787,3.908,3.607,5.778,5.479c30.678,30.668,47.572,71.452,47.572,114.84v16.397c0,4.143,3.357,7.5,7.5,7.5    s7.5-3.357,7.5-7.5v-16.397c0-47.396-18.456-91.947-51.964-125.444c-2.727-2.729-5.565-5.378-8.482-7.939    c5.671-6.61,9.175-14.789,10.116-23.357c0.676,0.053,1.355,0.08,2.037,0.08c12.779,0,23.441-9.239,25.659-21.387    c20.975-1.427,36.649-7.753,46.656-18.848C469.653,277.666,468.438,262.072,468.38,261.414z M350.807,192.81v-8.624    c2.868-4.06,7.507-6.479,12.481-6.479c8.421,0,15.272,6.852,15.272,15.272c0,8.42-6.852,15.272-15.272,15.272    c-5.081,0-9.817-2.52-12.669-6.739c-0.021-0.031-0.045-0.058-0.066-0.088C350.719,198.579,350.807,195.707,350.807,192.81z     M160.814,202.292c-2.922,3.788-7.331,5.96-12.098,5.96c-8.421,0-15.272-6.852-15.272-15.272s6.852-15.272,15.272-15.272    c4.767,0,9.176,2.172,12.098,5.959c0.122,0.158,0.252,0.303,0.384,0.449v8.696c0,2.946,0.09,5.866,0.261,8.759    C161.233,201.796,161.014,202.032,160.814,202.292z M378.426,15.224c3.067,11.508,8.688,40.648-2.853,69.65    c-11.888-23.572-26.466-43.639-45.877-55.387C349.189,18.623,369.149,15.9,378.426,15.224z M176.197,192.811V156.95    c2.322-0.035,4.661-0.501,6.9-1.428c3.404-1.41,6.225-3.733,8.228-6.618l5.385,5.386c5.375,5.373,13.383,6.969,20.406,4.059    c6.227-2.579,10.499-8.209,11.387-14.751l46.912,19.502c2.318,0.964,4.761,1.439,7.192,1.439c3.64,0,7.254-1.065,10.381-3.151    c5.217-3.48,8.332-9.305,8.332-15.579v-3.012l34.486,11.365v38.65c0,56.808-35.8,103.023-79.805,103.023    S176.197,249.618,176.197,192.811z M228.313,339.254c4.143,0,7.5-3.357,7.5-7.5v-23.623c6.509,1.764,13.262,2.703,20.189,2.703    c6.927,0,13.681-0.938,20.189-2.703v23.623c0,4.143,3.357,7.5,7.5,7.5s7.5-3.357,7.5-7.5v-6.942    c7.739,1.37,15.407,3.192,22.911,5.459c-1.57,13.214-7.565,25.427-17.205,34.848c-10.993,10.743-25.517,16.659-40.896,16.659    c-15.379,0-29.902-5.916-40.896-16.659c-9.64-9.421-15.635-21.634-17.205-34.848c7.507-2.267,15.173-4.092,22.911-5.462v6.945    C220.813,335.897,224.17,339.254,228.313,339.254z M350.127,365.284L350.127,365.284c0,20.701-16.842,37.542-37.543,37.542H199.42    c-20.701,0-37.543-16.841-37.543-37.542v-22.683c0-20.701,16.842-37.542,37.543-37.542h21.393v4.532    c-11.26,1.85-22.399,4.601-33.183,8.206c-3.124,1.044-5.2,4.005-5.12,7.297c0.473,19.254,8.326,37.277,22.112,50.751    c13.813,13.498,32.06,20.932,51.38,20.932s37.567-7.434,51.38-20.932c13.786-13.474,21.64-31.497,22.112-50.751    c0.08-3.292-1.996-6.252-5.12-7.297c-10.778-3.603-21.92-6.355-33.183-8.206v-4.533h21.393c20.701,0,37.543,16.841,37.543,37.542    V365.284z" fill="#fff"/>
	</g>
</g>
<g>
	<g>
		<path d="M377.711,270.019l-9.226-23.206c-1.531-3.849-5.889-5.729-9.741-4.199c-3.85,1.53-5.729,5.892-4.199,9.74l9.226,23.206    c1.169,2.94,3.989,4.731,6.972,4.731c0.922,0,1.859-0.171,2.769-0.532C377.362,278.229,379.241,273.867,377.711,270.019z" fill="#fff"/>
	</g>
</g>
<g>
	<g>
		<path d="M402.335,270.019l-9.225-23.206c-1.531-3.849-5.889-5.729-9.741-4.199c-3.85,1.53-5.729,5.891-4.199,9.74l9.225,23.206    c1.169,2.94,3.989,4.731,6.972,4.731c0.922,0,1.859-0.171,2.769-0.532C401.986,278.229,403.865,273.868,402.335,270.019z" fill="#fff"/>
	</g>
</g>
<g>
	<g>
		<path d="M153.261,242.614c-3.845-1.528-8.209,0.35-9.74,4.199l-9.226,23.206c-1.53,3.849,0.35,8.21,4.199,9.74    c0.909,0.361,1.845,0.532,2.768,0.532c2.981,0,5.803-1.791,6.972-4.731l9.226-23.206    C158.99,248.505,157.11,244.144,153.261,242.614z" fill="#fff"/>
	</g>
</g>
<g>
	<g>
		<path d="M128.636,242.614c-3.851-1.531-8.21,0.35-9.74,4.199l-9.225,23.206c-1.531,3.849,0.349,8.21,4.198,9.74    c0.909,0.361,1.847,0.532,2.769,0.532c2.982,0,5.803-1.791,6.972-4.731l9.225-23.206    C134.365,248.504,132.485,244.144,128.636,242.614z" fill="#fff"/>
	</g>
</g>
<g>
	<g>
		<path d="M97.557,426.206c-3.924-1.333-8.183,0.761-9.518,4.682c-6.27,18.411-9.448,37.661-9.448,57.217v16.397    c0,4.143,3.357,7.5,7.5,7.5s7.5-3.357,7.5-7.5v-16.397c0-17.907,2.909-35.53,8.647-52.381    C103.573,431.803,101.478,427.541,97.557,426.206z" fill="#fff"/>
	</g>
</g>
<g>
	<g>
		<path d="M216.285,183.039c-4.143,0-7.5,3.357-7.5,7.5v12.102c0,4.142,3.358,7.5,7.5,7.5c4.143,0,7.5-3.357,7.5-7.5v-12.102    C223.785,186.396,220.428,183.039,216.285,183.039z" fill="#fff"/>
	</g>
</g>
<g>
	<g>
		<path d="M295.719,183.039c-4.143,0-7.5,3.357-7.5,7.5v12.102c0,4.142,3.357,7.5,7.5,7.5s7.5-3.357,7.5-7.5v-12.102    C303.219,186.396,299.862,183.039,295.719,183.039z" fill="#fff"/>
	</g>
</g>
<g>
	<g>
		<path d="M215.419,442.045c-10.699,0-19.404,8.705-19.404,19.404c0,10.699,8.705,19.403,19.404,19.403s19.404-8.703,19.404-19.403    C234.823,450.75,226.118,442.045,215.419,442.045z M215.419,465.853c-2.429,0-4.404-1.976-4.404-4.403    c0-2.429,1.976-4.404,4.404-4.404c2.428,0,4.404,1.976,4.404,4.404C219.823,463.877,217.848,465.853,215.419,465.853z" fill="#fff"/>
	</g>
</g>
<g>
	<g>
		<path d="M256.002,424.463c-10.699,0-19.404,8.705-19.404,19.404c0,10.699,8.705,19.404,19.404,19.404    c10.699,0,19.404-8.704,19.404-19.404C275.406,433.168,266.701,424.463,256.002,424.463z M256.002,448.271    c-2.428,0-4.404-1.975-4.404-4.404c0-2.429,1.976-4.404,4.404-4.404c2.428,0,4.404,1.976,4.404,4.404    S258.43,448.271,256.002,448.271z" fill="#fff"/>
	</g>
</g>
<g>
	<g>
		<path d="M256.002,466.885c-17.476,0-31.693,14.218-31.693,31.694c0,4.143,3.357,7.5,7.5,7.5s7.5-3.357,7.5-7.5    c0-9.205,7.488-16.694,16.693-16.694c9.205,0,16.693,7.489,16.693,16.694c0,4.143,3.357,7.5,7.5,7.5s7.5-3.357,7.5-7.5    C287.695,481.103,273.478,466.885,256.002,466.885z" fill="#fff"/>
	</g>
</g>
<g>
	<g>
		<path d="M296.585,442.045c-10.699,0-19.404,8.705-19.404,19.404c0,10.699,8.705,19.403,19.404,19.403    c10.699,0,19.404-8.704,19.404-19.403C315.989,450.75,307.284,442.045,296.585,442.045z M296.585,465.853    c-2.429,0-4.404-1.976-4.404-4.403c0-2.429,1.976-4.404,4.404-4.404s4.404,1.976,4.404,4.404    C300.989,463.877,299.014,465.853,296.585,465.853z" fill="#fff"/>
	</g>
</g>
<g>
	<g>
		<path d="M282.216,233.392c-4.089-0.675-7.944,2.101-8.614,6.188c-0.551,3.363-2.501,5.445-3.992,5.445    c-1.49,0-3.44-2.082-3.992-5.446c-0.595-3.626-3.729-6.286-7.402-6.286c-3.673,0-6.806,2.661-7.4,6.287    c-0.551,3.363-2.501,5.445-3.992,5.445c-1.49,0-3.44-2.082-3.992-5.446c-0.67-4.088-4.52-6.857-8.615-6.188    c-4.088,0.671-6.857,4.528-6.188,8.615c1.71,10.442,9.615,18.02,18.792,18.02c4.229,0,8.188-1.608,11.394-4.364    c3.207,2.756,7.165,4.364,11.394,4.364c9.179,0,17.084-7.578,18.795-18.02C289.074,237.918,286.303,234.062,282.216,233.392z" fill="#fff"/>
	</g>
</g>
<g>
</g>
<g>
</g>
<g>
</g>
<g>
</g>
<g>
</g>
<g>
</g>
<g>
</g>
<g>
</g>
<g>
</g>
<g>
</g>
<g>
</g>
<g>
</g>
<g>
</g>
<g>
</g>
<g>
</g>
</svg>
