<svg class="nav__logo" id="Layer_1" data-name="Layer 1" xmlns="http://www.w3.org/2000/svg" xmlns:xlink="http://www.w3.org/1999/xlink" viewBox="0 0 113 80.55"><defs><linearGradient id="linear-gradient" x1="17.74" y1="0.77" x2="94.03" y2="77.06" gradientUnits="userSpaceOnUse"><stop offset="0" stop-color="#ef2883"/><stop offset="1" stop-color="#8d33df"/></linearGradient></defs><title>Logo</title><path d="M67.88,30.76C47.82,1,37.27,25.89,39,40.29c6.28,51.26,7.54,4.77,28.85,14.31S87.94,60.56,67.88,30.76Z" fill="#fff"/><path d="M113,41.4a5.39,5.39,0,0,0-5.59-5.6H104.3a5.77,5.77,0,0,1-5.73-4.46,40.32,40.32,0,0,0-2.34-7.14c-1.07-2.45.74-3.76,3.41-3.76l5,0c2,0,2.1-1.53,2.12-2.46a2,2,0,0,0-2.16-2.35H91.15c-.57-.74-1.16-1.46-1.78-2.15a0,0,0,0,1,0-.07H91a4,4,0,0,0,4-3.08,3.93,3.93,0,0,0-3.83-4.76H87.39a34.6,34.6,0,0,1-13-2.66A40.28,40.28,0,0,0,37,6.75a26.82,26.82,0,0,1-14.91,4.44H8.57a3,3,0,0,0-3,2.67,2.79,2.79,0,0,0,2.79,2.92h18.2c-.23.32-.46.65-.68,1A8.53,8.53,0,0,1,19.65,21H11.24C6.89,21,5.33,23.88,5.31,27c0,3.45,2,6,5.74,6h2.88c.48,0,2.07.07,2.55.09,1.8.09,3.13.69,2.79,2.29-.17,1.46-.22,3.38-.25,4.9a32.86,32.86,0,0,0,.14,3.3A4.16,4.16,0,0,1,15,48.11H6.88C3,48.11.3,50.24,0,53.17A5.6,5.6,0,0,0,5.59,59.3H23.76s0,0,0,0l0,0a1.47,1.47,0,0,1-1.3,2.16H19.68a1.74,1.74,0,0,0-1.75,1.4,1.68,1.68,0,0,0,1.65,2H24.3a6.84,6.84,0,0,1,5.06,2.31A40.28,40.28,0,0,0,71,78.82a11,11,0,0,1,3.16-.5H86a2.35,2.35,0,0,0,2.31-1.69,2.25,2.25,0,0,0-2.17-2.79H81.56c.42-.28.84-.57,1.25-.87a1.31,1.31,0,0,1,.77-.25h13a4,4,0,0,0,4-3.08,3.92,3.92,0,0,0-3.82-4.75H94.9a1.94,1.94,0,0,1-1.64-3A39.94,39.94,0,0,0,98.8,48.09c1.89-1.1,2.62-1.1,5.25-1.1h3.36C111.88,47,113,44,113,41.4ZM67.29,53.84C46.41,44.49,45.18,90.05,39,39.82,37.3,25.71,47.64,1.28,67.29,30.48c1.27,1.89,2.46,3.65,3.57,5.33a.3.3,0,0,1-.26.47,3.64,3.64,0,0,0-3.41,2.35c-1.3,3.35.94,5.74,3.23,5.74l3.37.19c1.35,0,3.73,1.58,4.45,2.73C87.85,62.7,84,61.29,67.29,53.84Z" fill="url(#linear-gradient)"/><rect x="53.87" y="36.65" width="7.25" height="7.25" rx="3.63" ry="3.63" fill="#bc37b9"/><rect x="64" y="42.28" width="1.64" height="1.64" rx="0.82" ry="0.82" transform="translate(59.9 120.78) rotate(-120)" fill="#bc37b9"/><rect x="63.7" y="35.11" width="2.99" height="2.99" rx="1.49" ry="1.49" transform="translate(76.87 -37.25) rotate(69.68)" fill="#bc37b9"/></svg>
